HIERARCHY
ROOT Hips
{
	OFFSET 0.000000 71.427986 0.000000
	CHANNELS 6 Xposition Yposition Zposition Xrotation Yrotation Zrotation
	JOINT Pelvis
	{
		OFFSET 0.000000 0.000000 0.000000
		CHANNELS 3 Xrotation Yrotation Zrotation
		JOINT LeftUpLeg
		{
			OFFSET 6.797100 -2.508499 -1.318700
			CHANNELS 3 Xrotation Yrotation Zrotation
			JOINT LeftLeg
			{
				OFFSET 0.069008 -29.241863 0.690200
				CHANNELS 3 Xrotation Yrotation Zrotation
				JOINT LeftFoot
				{
					OFFSET -0.069008 -29.568123 -0.266800
					CHANNELS 3 Xrotation Yrotation Zrotation
					JOINT LeftToeBase
					{
						OFFSET 3.145500 -8.631000 16.059900
						CHANNELS 3 Xrotation Yrotation Zrotation
						End Site
						{
							OFFSET 0.000000 18.501587 0.000000
						}
					}
				}
			}
			JOINT Left_ShortSleeve
			{
				OFFSET 0.265923 -10.480953 1.153800
				CHANNELS 3 Xrotation Yrotation Zrotation
				End Site
				{
					OFFSET 1.725763 19.823879 0.000000
				}
			}
		}
		JOINT RightUpLeg
		{
			OFFSET -6.797100 -2.508499 -1.318700
			CHANNELS 3 Xrotation Yrotation Zrotation
			JOINT RightLeg
			{
				OFFSET -0.082453 -29.241932 0.688000
				CHANNELS 3 Xrotation Yrotation Zrotation
				JOINT RightFoot
				{
					OFFSET 0.082453 -29.568058 -0.264600
					CHANNELS 3 Xrotation Yrotation Zrotation
					JOINT RightToeBase
					{
						OFFSET -3.115300 -8.682800 16.113400
						CHANNELS 3 Xrotation Yrotation Zrotation
						End Site
						{
							OFFSET 0.000000 18.567114 0.000000
						}
					}
				}
			}
			JOINT Right_ShortSleeve
			{
				OFFSET -0.265923 -10.480953 1.153800
				CHANNELS 3 Xrotation Yrotation Zrotation
				End Site
				{
					OFFSET -1.725766 19.823910 0.000000
				}
			}
		}
	}
	JOINT Spine
	{
		OFFSET 0.000000 13.368103 0.470500
		CHANNELS 3 Xrotation Yrotation Zrotation
		JOINT Spine1
		{
			OFFSET 0.147000 13.837402 0.538800
			CHANNELS 3 Xrotation Yrotation Zrotation
			JOINT Spine2
			{
				OFFSET 0.168000 16.242897 -1.435500
				CHANNELS 3 Xrotation Yrotation Zrotation
				JOINT Neck
				{
					OFFSET 0.217200 18.631500 -1.679100
					CHANNELS 3 Xrotation Yrotation Zrotation
					JOINT Head
					{
						OFFSET 0.000000 6.599396 1.385900
						CHANNELS 3 Xrotation Yrotation Zrotation
						JOINT Hat
						{
							OFFSET -0.532200 27.220596 -10.096100
							CHANNELS 3 Xrotation Yrotation Zrotation
							End Site
							{
								OFFSET 0.000000 22.029861 0.000000
							}
						}
						JOINT HairD
						{
							OFFSET -10.777400 17.437393 -1.325900
							CHANNELS 3 Xrotation Yrotation Zrotation
							JOINT HairD1
							{
								OFFSET -3.290299 -11.051193 1.062200
								CHANNELS 3 Xrotation Yrotation Zrotation
								End Site
								{
									OFFSET 0.000000 11.579437 0.000000
								}
							}
						}
						JOINT HairB
						{
							OFFSET -10.777400 17.437393 1.467900
							CHANNELS 3 Xrotation Yrotation Zrotation
							JOINT HairB1
							{
								OFFSET -1.561200 -12.956299 3.590200
								CHANNELS 3 Xrotation Yrotation Zrotation
								End Site
								{
									OFFSET 0.000000 13.534866 0.000000
								}
							}
						}
						JOINT HairA
						{
							OFFSET 9.713100 17.437393 1.467900
							CHANNELS 3 Xrotation Yrotation Zrotation
							JOINT HairA1
							{
								OFFSET 1.561200 -12.956299 3.590200
								CHANNELS 3 Xrotation Yrotation Zrotation
								End Site
								{
									OFFSET 0.000000 13.534866 0.000000
								}
							}
						}
						JOINT HairC
						{
							OFFSET 9.713100 17.437393 -1.325900
							CHANNELS 3 Xrotation Yrotation Zrotation
							JOINT HairC1
							{
								OFFSET 3.290300 -11.051193 1.062200
								CHANNELS 3 Xrotation Yrotation Zrotation
								End Site
								{
									OFFSET 0.000000 11.579437 0.000000
								}
							}
						}
					}
				}
				JOINT LeftShoulder
				{
					OFFSET 5.101800 15.108002 -2.763700
					CHANNELS 3 Xrotation Yrotation Zrotation
					JOINT LeftArm
					{
						OFFSET 9.825497 2.506317 -1.597400
						CHANNELS 3 Xrotation Yrotation Zrotation
						JOINT LeftForeArm
						{
							OFFSET 21.966244 0.000000 0.000000
							CHANNELS 3 Xrotation Yrotation Zrotation
							JOINT LeftHand
							{
								OFFSET 33.879036 0.000000 0.000000
								CHANNELS 3 Xrotation Yrotation Zrotation
								JOINT LeftHandThumb1
								{
									OFFSET 6.715286 -2.359680 3.363841
									CHANNELS 3 Xrotation Yrotation Zrotation
									JOINT LeftHandThumb2
									{
										OFFSET 2.507072 -1.447464 1.447461
										CHANNELS 3 Xrotation Yrotation Zrotation
										JOINT LeftHandThumb3
										{
											OFFSET 2.898338 -1.673355 1.673357
											CHANNELS 3 Xrotation Yrotation Zrotation
											End Site
											{
												OFFSET -0.295959 3.727692 -0.131651
											}
										}
									}
								}
								JOINT LeftHandIndex1
								{
									OFFSET 14.190811 -0.254547 3.840278
									CHANNELS 3 Xrotation Yrotation Zrotation
									JOINT LeftHandIndex2
									{
										OFFSET 3.551727 0.000000 -0.000000
										CHANNELS 3 Xrotation Yrotation Zrotation
										JOINT LeftHandIndex3
										{
											OFFSET 2.894196 0.000000 0.000000
											CHANNELS 3 Xrotation Yrotation Zrotation
											End Site
											{
												OFFSET -1.000603 2.690872 0.366626
											}
										}
									}
								}
								JOINT LeftHandMiddle1
								{
									OFFSET 13.776489 0.000000 0.000000
									CHANNELS 3 Xrotation Yrotation Zrotation
									JOINT LeftHandMiddle2
									{
										OFFSET 3.438232 0.000000 0.000000
										CHANNELS 3 Xrotation Yrotation Zrotation
										JOINT LeftHandMiddle3
										{
											OFFSET 3.691551 0.000000 0.000000
											CHANNELS 3 Xrotation Yrotation Zrotation
											End Site
											{
												OFFSET -1.082298 3.499527 0.457670
											}
										}
									}
								}
								JOINT LeftHandRing1
								{
									OFFSET 13.966164 -0.268127 -3.067488
									CHANNELS 3 Xrotation Yrotation Zrotation
									JOINT LeftHandRing2
									{
										OFFSET 3.162567 0.000000 0.000000
										CHANNELS 3 Xrotation Yrotation Zrotation
										JOINT LeftHandRing3
										{
											OFFSET 3.324348 0.000000 0.000000
											CHANNELS 3 Xrotation Yrotation Zrotation
											End Site
											{
												OFFSET -0.861900 3.184998 0.405154
											}
										}
									}
								}
								JOINT LeftHandPinky1
								{
									OFFSET 13.131393 -0.168503 -5.746925
									CHANNELS 3 Xrotation Yrotation Zrotation
									JOINT LeftHandPinky2
									{
										OFFSET 2.849182 0.000000 0.000000
										CHANNELS 3 Xrotation Yrotation Zrotation
										JOINT LeftHandPinky3
										{
											OFFSET 2.805038 0.000000 0.000000
											CHANNELS 3 Xrotation Yrotation Zrotation
											End Site
											{
												OFFSET -0.882500 2.642609 0.325652
											}
										}
									}
								}
							}
							JOINT Left_Sleeve
							{
								OFFSET 6.592125 -0.646545 0.805568
								CHANNELS 3 Xrotation Yrotation Zrotation
								End Site
								{
									OFFSET -0.000179 20.275787 -0.000000
								}
							}
						}
					}
				}
				JOINT RightShoulder
				{
					OFFSET -5.731700 15.108002 -2.763700
					CHANNELS 3 Xrotation Yrotation Zrotation
					JOINT RightArm
					{
						OFFSET -9.825497 2.506317 -1.597400
						CHANNELS 3 Xrotation Yrotation Zrotation
						JOINT RightForeArm
						{
							OFFSET -21.966242 0.000000 0.000000
							CHANNELS 3 Xrotation Yrotation Zrotation
							JOINT RightHand
							{
								OFFSET -33.879032 0.000000 0.000000
								CHANNELS 3 Xrotation Yrotation Zrotation
								JOINT RightHandThumb1
								{
									OFFSET -6.715286 -2.359680 3.363841
									CHANNELS 3 Xrotation Yrotation Zrotation
									JOINT RightHandThumb2
									{
										OFFSET -2.507072 -1.447464 1.447461
										CHANNELS 3 Xrotation Yrotation Zrotation
										JOINT RightHandThumb3
										{
											OFFSET -2.898338 -1.673355 1.673357
											CHANNELS 3 Xrotation Yrotation Zrotation
											End Site
											{
												OFFSET 0.295959 3.727692 -0.131651
											}
										}
									}
								}
								JOINT RightHandIndex1
								{
									OFFSET -14.190811 -0.254547 3.840278
									CHANNELS 3 Xrotation Yrotation Zrotation
									JOINT RightHandIndex2
									{
										OFFSET -3.551727 0.000000 -0.000000
										CHANNELS 3 Xrotation Yrotation Zrotation
										JOINT RightHandIndex3
										{
											OFFSET -2.894196 0.000000 0.000000
											CHANNELS 3 Xrotation Yrotation Zrotation
											End Site
											{
												OFFSET 1.000603 2.690872 0.366626
											}
										}
									}
								}
								JOINT RightHandMiddle1
								{
									OFFSET -13.776489 0.000000 0.000000
									CHANNELS 3 Xrotation Yrotation Zrotation
									JOINT RightHandMiddle2
									{
										OFFSET -3.438232 0.000000 0.000000
										CHANNELS 3 Xrotation Yrotation Zrotation
										JOINT RightHandMiddle3
										{
											OFFSET -3.691551 0.000000 0.000000
											CHANNELS 3 Xrotation Yrotation Zrotation
											End Site
											{
												OFFSET 1.082298 3.499527 0.457670
											}
										}
									}
								}
								JOINT RightHandRing1
								{
									OFFSET -13.966164 -0.268127 -3.067488
									CHANNELS 3 Xrotation Yrotation Zrotation
									JOINT RightHandRing2
									{
										OFFSET -3.162567 0.000000 0.000000
										CHANNELS 3 Xrotation Yrotation Zrotation
										JOINT RightHandRing3
										{
											OFFSET -3.324348 0.000000 0.000000
											CHANNELS 3 Xrotation Yrotation Zrotation
											End Site
											{
												OFFSET 0.861900 3.184998 0.405154
											}
										}
									}
								}
								JOINT RightHandPinky1
								{
									OFFSET -13.131393 -0.168503 -5.746925
									CHANNELS 3 Xrotation Yrotation Zrotation
									JOINT RightHandPinky2
									{
										OFFSET -2.849182 0.000000 0.000000
										CHANNELS 3 Xrotation Yrotation Zrotation
										JOINT RightHandPinky3
										{
											OFFSET -2.805038 0.000000 0.000000
											CHANNELS 3 Xrotation Yrotation Zrotation
											End Site
											{
												OFFSET 0.882500 2.642609 0.325652
											}
										}
									}
								}
							}
							JOINT Right_Sleeve
							{
								OFFSET -6.592125 -0.646545 0.805568
								CHANNELS 3 Xrotation Yrotation Zrotation
								End Site
								{
									OFFSET 0.000179 20.275787 -0.000000
								}
							}
						}
					}
				}
				JOINT Bind_Right_JacketString
				{
					OFFSET -3.534800 11.969597 7.200700
					CHANNELS 3 Xrotation Yrotation Zrotation
					JOINT Bind_Right_JacketString1
					{
						OFFSET -0.319900 -6.102600 2.794100
						CHANNELS 3 Xrotation Yrotation Zrotation
						End Site
						{
							OFFSET 0.000000 6.719452 0.000000
						}
					}
				}
				JOINT Bind_Left_JacketString
				{
					OFFSET 2.904800 11.969597 7.200700
					CHANNELS 3 Xrotation Yrotation Zrotation
					JOINT Bind_Left_JacketString1
					{
						OFFSET 0.364800 -5.904503 3.186800
						CHANNELS 3 Xrotation Yrotation Zrotation
						End Site
						{
							OFFSET 0.000000 6.719513 0.000000
						}
					}
				}
				JOINT HairE
				{
					OFFSET 5.915200 17.612701 -11.592200
					CHANNELS 3 Xrotation Yrotation Zrotation
					JOINT HairE1
					{
						OFFSET 0.289200 -7.171898 -1.284500
						CHANNELS 3 Xrotation Yrotation Zrotation
						End Site
						{
							OFFSET 0.000000 7.291756 0.000000
						}
					}
				}
				JOINT HairF
				{
					OFFSET -0.864800 17.612701 -11.592200
					CHANNELS 3 Xrotation Yrotation Zrotation
					JOINT HairF1
					{
						OFFSET 0.000000 -14.087097 -2.127501
						CHANNELS 3 Xrotation Yrotation Zrotation
						End Site
						{
							OFFSET 0.000000 14.246841 0.000000
						}
					}
				}
				JOINT HairG
				{
					OFFSET -8.087700 17.612701 -11.592200
					CHANNELS 3 Xrotation Yrotation Zrotation
					JOINT HairG1
					{
						OFFSET -0.293600 -6.081398 -0.910100
						CHANNELS 3 Xrotation Yrotation Zrotation
						End Site
						{
							OFFSET 0.000000 6.156120 0.000000
						}
					}
				}
			}
		}
	}
	JOINT Pouch
	{
		OFFSET 0.000000 4.394501 10.847300
		CHANNELS 3 Xrotation Yrotation Zrotation
		End Site
		{
			OFFSET 0.000000 21.880577 0.000000
		}
	}
	JOINT Bag
	{
		OFFSET -13.229000 4.813004 -0.593300
		CHANNELS 3 Xrotation Yrotation Zrotation
		End Site
		{
			OFFSET 0.000000 21.880577 0.000000
		}
	}
	JOINT OccupyGuyFacialAnim_Joint
	{
		OFFSET 1.000000 -70.206398 -1.655000
		CHANNELS 3 Xrotation Yrotation Zrotation
		End Site
		{
			OFFSET 0.000000 21.880577 0.000000
		}
	}
}
MOTION
Frames: 4
Frame Time: 0.033333
0.044963 43.332008 -14.528159 -24.811642 -5.392880 1.099212 0.000000 0.000000 0.000000 -61.257576 8.042602 11.490289 95.781710 2.850538 5.027844 -10.818811 0.196131 -1.599806 -0.000000 0.000001 -0.000000 0.000000 0.000000 -0.000001 -63.032660 -3.548398 -11.329768 97.522315 9.402358 -1.493312 -9.307324 5.006681 -6.499839 -0.000000 0.000000 -0.000000 0.000000 0.000001 -0.000000 11.950753 3.150501 -2.706980 18.546332 0.783017 0.825149 18.536758 0.779936 0.996768 13.417717 -0.919804 -1.852450 -27.853373 -4.999269 -0.495034 -0.000001 -0.000000 -0.000000 -0.000001 -0.000000 -0.000000 -0.000001 -0.000000 -0.000000 -0.000001 -0.000000 0.000000 -0.000001 -0.000000 0.000000 -0.000001 -0.000000 0.000000 -0.000001 -0.000000 0.000000 -0.000001 -0.000000 -0.000000 -0.000001 -0.000000 -0.000000 -0.055285 5.258067 -4.395205 -7.151165 -37.588881 -65.935702 -0.000196 -73.871132 -0.000216 38.128588 14.082005 19.222070 -1.606568 -4.712758 -5.980867 8.153741 13.246944 -2.948318 0.000001 0.000002 0.000001 0.000004 0.000018 0.000007 0.048215 0.815095 -6.770251 0.000001 0.000001 0.000000 -0.000003 -0.001928 0.015979 0.048448 0.817025 -6.786233 -0.000001 0.000000 0.000001 0.000004 -0.000001 0.000004 0.048218 0.815116 -6.770243 0.000001 0.000000 0.000000 -0.018095 4.054276 0.511085 0.037477 -3.239620 -7.277438 -0.000001 0.000001 -0.000001 0.000001 0.000000 0.000001 1.269730 1.061925 5.623284 -9.523228 21.337436 69.773968 0.000016 76.756150 -0.000002 33.587575 -21.285236 -22.954205 9.595234 -0.209894 6.657189 3.611677 -29.736960 -3.127285 -0.000001 0.000001 -0.000000 0.000005 -0.000009 -0.000005 0.188178 -1.609866 13.333320 0.000003 -0.000001 0.000000 -0.000000 -0.000021 -0.000008 0.188178 -1.609853 13.333331 -0.000000 -0.000000 -0.000001 0.000004 -0.000012 -0.000005 0.188176 -1.609853 13.333328 -0.000001 -0.000002 -0.000002 0.000002 -0.000017 -0.000008 0.188177 -1.609854 13.333317 -0.000000 -0.000002 0.000002 0.000001 -0.000001 0.000001 0.000000 0.000000 -0.000000 0.000000 0.000000 -0.000000 0.000000 0.000000 -0.000000 0.000000 0.000000 -0.000000 0.000000 0.000000 -0.000000 0.000000 0.000000 -0.000000 0.000000 0.000000 -0.000000 0.000000 0.000000 -0.000000 0.000000 0.000000 -0.000000 0.000000 0.000000 -0.000000 0.000000 0.000000 0.000000 0.000000 0.000000 0.000000 0.000000 0.000000 0.000000 
0.042242 43.338364 -14.517558 -24.727090 -5.370856 1.143006 0.000001 -0.000000 -0.000000 -61.319792 8.103005 11.393510 95.757067 2.914969 5.119353 -10.820307 0.200464 -1.662182 0.000000 -0.000001 0.000000 0.000000 0.000000 0.000000 -63.037380 -3.289165 -11.346322 97.488233 9.409630 -1.112389 -9.412387 4.384783 -6.627099 0.000000 -0.000000 0.000000 -0.000000 0.000001 -0.000000 11.683989 3.053974 -2.807191 18.689459 0.781358 0.869961 18.679594 0.779296 1.039691 13.356496 0.647797 -2.225142 -27.923669 4.395958 -0.439973 0.000000 0.000000 -0.000000 0.000000 0.000000 -0.000000 0.000000 0.000000 -0.000000 0.000000 0.000000 -0.000000 0.000000 -0.000001 -0.000000 0.000000 0.000000 -0.000000 0.000000 -0.000001 -0.000000 0.000000 0.000000 -0.000000 0.000000 0.000000 -0.000000 -0.050489 5.191488 -4.295423 -7.300916 -37.443268 -66.116668 -0.000068 -73.854303 -0.000079 38.175645 14.041292 19.289696 -1.606569 -4.712759 -5.980858 8.153741 13.246944 -2.948311 -0.000000 -0.000000 0.000001 0.000004 0.000018 0.000009 0.048216 0.815095 -6.770252 0.000003 0.000001 -0.000002 -0.000003 -0.001928 0.015980 0.048449 0.817025 -6.786231 0.000003 0.000001 -0.000001 0.000002 -0.000000 0.000003 0.048215 0.815116 -6.770241 0.000000 0.000002 -0.000001 -0.018093 4.054276 0.511082 0.037476 -3.239622 -7.277433 0.000003 0.000001 0.000001 -0.000001 0.000002 -0.000002 1.281129 1.100881 5.820182 -9.671932 21.311585 69.691405 -0.000115 76.812335 0.000136 33.179546 -21.212416 -22.816645 9.595234 -0.209898 6.657188 3.611682 -29.736953 -3.127290 0.000001 -0.000002 -0.000002 0.000003 -0.000009 -0.000009 0.188182 -1.609870 13.333319 -0.000001 -0.000001 0.000002 -0.000002 -0.000022 -0.000009 0.188184 -1.609850 13.333328 0.000001 -0.000001 -0.000001 0.000004 -0.000014 -0.000007 0.188175 -1.609851 13.333327 -0.000001 0.000000 -0.000003 0.000001 -0.000017 -0.000007 0.188176 -1.609857 13.333323 -0.000002 0.000000 -0.000005 0.000001 0.000002 -0.000001 0.000002 0.000000 -0.000000 0.000002 0.000000 -0.000000 0.000002 0.000000 -0.000000 0.000002 0.000000 -0.000000 0.000002 0.000000 -0.000000 0.000002 0.000000 -0.000000 0.000002 0.000000 -0.000000 0.000002 0.000000 -0.000000 0.000002 0.000000 -0.000000 0.000002 0.000000 -0.000000 0.000001 -0.000000 -0.000000 0.000001 -0.000000 -0.000000 0.000001 -0.000000 -0.000000 
0.039736 43.344917 -14.505034 -24.658745 -5.353543 1.182507 0.000001 0.000000 -0.000000 -61.364168 8.156342 11.309937 95.738570 2.969864 5.197278 -10.828514 0.204726 -1.717472 -0.000000 -0.000000 0.000000 -0.000000 0.000000 -0.000000 -63.033084 -3.056664 -11.363816 97.460372 9.416198 -0.778558 -9.508702 3.865259 -6.736369 0.000000 -0.000000 0.000000 -0.000000 0.000001 0.000000 11.464525 2.967551 -2.872702 18.806175 0.779663 0.910704 18.796076 0.777587 1.078649 13.340077 2.095857 -2.599253 -28.245088 13.142282 -0.442865 0.000001 0.000001 -0.000000 0.000001 0.000001 -0.000000 0.000001 0.000001 0.000000 0.000001 0.000001 -0.000000 0.000001 0.000001 -0.000000 0.000001 0.000001 -0.000000 0.000001 0.000001 -0.000000 0.000001 0.000001 -0.000000 0.000001 0.000001 -0.000000 -0.046726 5.144816 -4.228566 -7.408536 -37.337332 -66.250048 -0.000086 -73.844085 -0.000098 38.203625 14.000820 19.342503 -1.606569 -4.712759 -5.980865 8.153737 13.246947 -2.948312 0.000000 0.000001 0.000001 0.000004 0.000015 0.000010 0.048218 0.815094 -6.770249 0.000003 0.000001 -0.000002 -0.000004 -0.001930 0.015982 0.048451 0.817024 -6.786230 -0.000001 0.000001 0.000001 0.000004 -0.000001 0.000005 0.048215 0.815114 -6.770240 -0.000001 0.000001 0.000000 -0.018092 4.054277 0.511082 0.037479 -3.239621 -7.277437 0.000003 0.000000 0.000001 0.000000 -0.000002 0.000001 1.293534 1.151878 5.951411 -9.789349 21.269033 69.633751 0.000181 76.874401 -0.000177 32.919319 -21.172362 -22.717520 9.595229 -0.209896 6.657193 3.611679 -29.736957 -3.127284 -0.000000 -0.000003 0.000001 0.000002 -0.000012 -0.000001 0.188182 -1.609865 13.333316 0.000001 -0.000002 0.000003 -0.000000 -0.000023 -0.000007 0.188180 -1.609852 13.333328 -0.000002 0.000001 -0.000001 -0.000001 -0.000014 -0.000003 0.188178 -1.609850 13.333328 -0.000001 -0.000002 0.000001 -0.000002 -0.000019 -0.000010 0.188179 -1.609857 13.333325 -0.000002 -0.000002 0.000002 0.000000 0.000001 0.000001 0.000001 -0.000000 -0.000000 -0.000001 -0.000000 -0.000000 0.000001 -0.000000 -0.000000 0.000001 -0.000000 -0.000000 0.000001 -0.000000 -0.000000 -0.000001 -0.000000 -0.000000 0.000001 -0.000000 -0.000000 0.000001 -0.000000 -0.000000 0.000001 -0.000000 -0.000000 -0.000001 -0.000000 -0.000000 0.000001 0.000000 -0.000000 0.000001 0.000000 -0.000000 0.000001 0.000000 -0.000000 
0.037270 43.351974 -14.490108 -24.623085 -5.345175 1.210078 -0.000000 -0.000000 0.000000 -61.374782 8.193085 11.257145 95.731098 3.004177 5.246752 -10.847195 0.208402 -1.756026 -0.000000 -0.000000 0.000000 0.000000 0.000000 -0.000000 -63.014376 -2.898871 -11.379932 97.447443 9.419272 -0.561879 -9.580982 3.564768 -6.804666 0.000000 -0.000000 -0.000000 -0.000000 -0.000000 -0.000000 11.348865 2.906595 -2.875910 18.864841 0.778079 0.940674 18.854679 0.774327 1.107170 13.398969 3.249211 -2.952651 -28.697815 20.182801 -0.454984 0.000001 -0.000002 0.000000 0.000001 -0.000002 0.000000 0.000001 -0.000002 0.000000 0.000001 -0.000002 -0.000000 -0.000000 -0.000002 -0.000000 0.000001 -0.000002 -0.000000 -0.000000 -0.000002 -0.000000 0.000001 -0.000002 0.000000 0.000001 -0.000002 0.000000 -0.045405 5.136870 -4.225027 -7.436962 -37.307067 -66.291699 0.000052 -73.843982 0.000068 38.197840 13.964176 19.366400 -1.606565 -4.712760 -5.980865 8.153738 13.246944 -2.948315 0.000000 0.000001 -0.000002 0.000003 0.000017 0.000007 0.048216 0.815096 -6.770250 0.000001 0.000001 -0.000000 -0.000002 -0.001928 0.015981 0.048446 0.817024 -6.786228 0.000001 -0.000000 0.000002 0.000004 -0.000001 0.000004 0.048215 0.815116 -6.770242 -0.000002 0.000001 -0.000002 -0.018093 4.054276 0.511082 0.037478 -3.239620 -7.277438 -0.000001 0.000000 0.000001 0.000001 -0.000003 0.000001 1.306804 1.217915 5.963553 -9.844163 21.202931 69.621307 -0.000035 76.939786 0.000045 32.922557 -21.185717 -22.688608 9.595229 -0.209898 6.657189 3.611677 -29.736960 -3.127283 -0.000000 0.000006 -0.000001 0.000007 -0.000010 -0.000006 0.188179 -1.609869 13.333314 0.000001 -0.000000 -0.000002 0.000002 -0.000023 -0.000005 0.188179 -1.609851 13.333329 0.000006 0.000002 -0.000004 0.000004 -0.000014 -0.000004 0.188178 -1.609852 13.333327 0.000003 -0.000001 -0.000001 -0.000001 -0.000019 -0.000009 0.188182 -1.609857 13.333326 0.000003 -0.000001 -0.000001 -0.000001 -0.000001 0.000001 0.000001 0.000000 -0.000000 0.000001 0.000000 0.000000 0.000001 0.000000 0.000000 0.000001 0.000000 0.000000 0.000001 0.000000 -0.000000 0.000001 0.000000 0.000000 0.000001 0.000000 0.000000 0.000001 0.000000 0.000000 0.000001 0.000000 -0.000000 0.000001 0.000000 0.000000 -0.000000 -0.000000 0.000000 -0.000000 -0.000000 0.000000 -0.000000 -0.000000 0.000000 
